<?xml version="1.0" encoding="UTF-8"?>
<svg id="Calque_1" data-name="Calque 1" xmlns="http://www.w3.org/2000/svg" viewBox="0 0 645.9 403.46">
  <defs>
    <style>
      .cls-1 {
        stroke-width: 0px;
      }
    </style>
  </defs>
  <path class="cls-1" d="m0,179.32c25.12-14.38,48.99-28.03,72.85-41.69C151.76,92.46,230.7,47.34,309.5,1.99c4.93-2.83,8.36-2.5,13.08.13,75.76,42.19,151.62,84.2,227.46,126.25,1.84,1.02,3.68,2.03,5.63,3.1,11.88-9.9,25.95-12.67,40.66-10.65,4.06.56,9.13,5.1,10.8,9.05,2.33,5.51,2.79,12.24,2.45,18.35-.7,12.62-1.13,12.59,9.64,18.55,8.61,4.77,17.22,9.54,26.68,14.77-11.27,6.05-21.85,11.5-32.14,17.45-2.02,1.17-4.13,4.3-4.14,6.53-.23,47.92-.17,95.85-.16,143.77,0,.81.16,1.63.31,3.1h22.95v51.05c-9.19-5.73-18.11-11.06-26.76-16.79-3.62-2.4-6.29-2.65-9.95.12-7.5,5.68-15.42,10.79-23.92,16.66v-50.42h21.2v-143.12c-21.76,11.64-43.04,23.02-65.64,35.12,0-9.19-.27-17.25.11-25.29.21-4.29-1.45-6.26-5.16-8.02-50.97-24.14-103.89-41.9-159.98-49.36-48.09-6.39-95.16-.6-141.45,12.76-32.73,9.45-64.41,21.66-94.86,37.05-5.18,2.62-7.91,5.43-7.02,11.37.42,2.82.07,5.75.07,9.92-40.06-18.18-79.1-35.89-119.36-54.16Zm586.93,19.56c8.43.09,15.34-6.67,15.38-15.03.04-8.24-6.96-15.4-15.11-15.45-7.97-.06-15.41,7.21-15.53,15.18-.12,8.08,7,15.23,15.26,15.31Zm5.51-47.02c.79-.38,1.58-.76,2.37-1.13-1.44-4.68-1.5-11.55-4.64-13.53-4.81-3.04-10.29,1.12-15.24,5.01,6.28,3.46,11.89,6.56,17.51,9.65Z"/>
  <path class="cls-1" d="m140.24,326.23c0-33.12-.05-65.26.14-97.4.01-1.75,1.68-4.29,3.28-5.11,42.42-21.9,86.95-37.56,134.18-45.29,55.84-9.14,109.64.29,162.3,18.26,20.99,7.16,41.29,16.39,61.77,25,2.1.88,4.63,4,4.65,6.1.28,31.93.18,63.87.15,95.81,0,.59-.25,1.18-.55,2.54-3.03-1.12-5.89-2.19-8.75-3.25-46.2-17.12-93.47-29.96-142.61-35.19-38.88-4.14-77.12.16-115.09,8.53-31.81,7.02-62.95,16.2-93.35,27.9-1.72.66-3.48,1.19-6.12,2.08Z"/>
</svg>