<?xml version="1.0" encoding="UTF-8"?>
<svg id="Calque_1" data-name="Calque 1" xmlns="http://www.w3.org/2000/svg" viewBox="0 0 287.65 294.66">
  <defs>
    <style>
      .cls-1 {
        fill: #f7f7f7;
      }

      .cls-1, .cls-2 {
        stroke-width: 0px;
      }

      .cls-2 {
        fill: #f1f1f1;
      }
    </style>
  </defs>
  <g id="Groupe_120" data-name="Groupe 120">
    <path id="Tracé_159" data-name="Tracé 159" class="cls-2" d="m3.78,87.4c11.04-7.01,21.53-13.66,32.02-20.32C70.48,45.06,105.14,23.03,139.8.97c2.17-1.38,3.68-1.22,5.75.06,33.3,20.57,66.62,41.08,99.97,61.54.81.5,1.62.99,2.48,1.51,5.22-4.82,11.41-6.18,17.87-5.19,1.78.27,4.01,2.48,4.75,4.41.95,2.88,1.32,5.92,1.08,8.95-.31,6.15-.5,6.14,4.24,9.04,3.78,2.33,7.57,4.65,11.73,7.2-4.95,2.95-9.6,5.6-14.13,8.5-1.02.76-1.68,1.92-1.82,3.19-.1,23.35-.08,46.71-.07,70.08,0,.39.07.79.14,1.51h10.09v24.88c-4.04-2.79-7.96-5.39-11.76-8.18-1.59-1.17-2.76-1.29-4.37.06-3.3,2.77-6.78,5.26-10.51,8.12v-24.58h9.32v-69.76c-9.57,5.67-18.91,11.22-28.85,17.12,0-4.48-.12-8.41.05-12.33.09-2.09-.63-3.05-2.27-3.91-22.4-11.76-45.66-20.42-70.31-24.06-21.13-3.11-41.82-.29-62.17,6.22-14.47,4.6-28.44,10.65-41.69,18.06-2.28,1.28-3.47,2.65-3.09,5.54.1,1.61.11,3.22.03,4.83-17.61-8.86-34.76-17.49-52.46-26.4v.02h0Zm257.96,9.54c3.71.05,6.74-3.25,6.76-7.32.02-4.02-3.06-7.51-6.64-7.53-3.5-.03-6.77,3.51-6.83,7.4-.05,3.94,3.07,7.42,6.7,7.46h0Zm2.42-22.92c.35-.19.69-.37,1.04-.55-.63-2.28-.66-5.63-2.04-6.59-2.11-1.48-4.52.54-6.7,2.44,2.76,1.68,5.22,3.19,7.69,4.7Z"/>
    <path id="Tracé_160" data-name="Tracé 160" class="cls-2" d="m66.25,144.19c-5.31-14.73-10.59-29.47-15.84-44.23-.2-1.05.11-2.13.84-2.91,20-18.26,42.28-30.16,68.47-36.93,32.43-5.89,61.87-.16,91.04,14.81,10.33,6.26,20.19,13.26,29.51,20.94.94.78,1.72,2.66,1.39,3.62-5.11,14.53-10.34,29.02-15.58,43.51-.19.37-.41.73-.65,1.07-1.09-.97-2.14-1.88-3.19-2.78-18.81-14.93-37.84-24.18-61.37-29.15-19.2-2.17-35.95.31-54.06,6.77-13.81,5.95-26.71,13.84-38.3,23.42-.63.55-1.29,1.06-2.26,1.86h0s0,0,0,0Z"/>
  </g>
  <g id="Icone_IT" data-name="Icone IT">
    <path id="Tracé_155" data-name="Tracé 155" class="cls-2" d="m154.95,294.38c-.02-.34-.05-.63-.05-.93-.02-3.44-.05-6.89-.07-10.33-.04-13.05-.07-26.09-.09-39.13-.02-7.52-.03-15.04-.03-22.56-.02-5.22-.05-10.45-.06-15.67-.05-15.89-.09-31.77-.12-47.65.01-.45-.01-.91-.06-1.36-.09-.76.14-1.04.97-1.04,7.1.03,14.19.02,21.29,0,2.39,0,4.77.02,7.16-.05.86-.02,1.13.22,1.13,1.1,0,6.67.05,13.35.07,20.02.02,9.94.02,19.87.03,29.81,0,5.38.05,10.75.06,16.13.04,11.3.08,22.59.11,33.88.03,9.82.05,19.63.07,29.45,0,2.51.03,5.01.08,7.51.02.6-.2.79-.78.79-9.79.02-19.57.04-29.35.08-.13-.01-.26-.03-.39-.05l.02.02Z"/>
    <path id="Tracé_156" data-name="Tracé 156" class="cls-2" d="m98.34,225.35v54.9c0,4.44.03,8.88.08,13.31,0,.8-.19,1.08-1.06,1.08-8.91-.02-17.82,0-26.73,0-.36,0-.72,0-1.09.02-1.12.07-1.68-.47-1.69-1.61v-.09c-.03-11.36-.06-22.71-.09-34.06-.02-9.21-.03-18.42-.03-27.63,0-5.29-.05-10.57-.06-15.85-.04-11.39-.08-22.77-.11-34.15-.02-8-.05-16-.07-24,0-1.22,0-1.22,1.25-1.22,5.71-.02,11.41-.05,17.12-.07,3.74-.02,7.49-.03,11.23-.09.78-.02,1.04.26.94.98,0,.06,0,.12,0,.18.03,11.93.06,23.86.09,35.78.02,7.94.03,15.89.03,23.83v8.7h.19Z"/>
    <path id="Tracé_157" data-name="Tracé 157" class="cls-2" d="m195.31,155.65h30.57v7.29c0,5.26,0,10.51.02,15.77.02,9.91.05,19.81.07,29.71,0,2.51.05,5.01.08,7.51,0,1.25,0,1.27-1.23,1.22-15.1-.52-27.54-12.01-29.27-27.02-.13-1.05-.19-2.11-.2-3.16-.03-10.06-.05-20.11-.05-30.16v-1.16h0Z"/>
    <path id="Tracé_158" data-name="Tracé 158" class="cls-2" d="m113.81,217.43v-1.09c-.02-14.79-.03-29.58-.04-44.38,0-4.98-.03-9.96-.08-14.94-.02-.92.26-1.16,1.17-1.15,6.19.04,12.38,0,18.57,0,3.23,0,6.46-.02,9.69-.08.79-.02,1.1.17,1.09,1.05-.02,5.19.02,10.38.05,15.58.02,4.83.07,9.66.08,14.49.08,13.33-8.53,25.15-21.24,29.16-2.99,1-6.13,1.46-9.28,1.37h0Z"/>
  </g>
  <g id="Groupe_119" data-name="Groupe 119">
    <path id="Tracé_159-2" data-name="Tracé 159-2" class="cls-1" d="m0,88.15c11.04-7.01,21.53-13.66,32.02-20.32C66.7,45.82,101.37,23.78,136.03,1.72c2.17-1.38,3.68-1.22,5.75.06,33.3,20.57,66.62,41.08,99.97,61.54.81.5,1.62.99,2.48,1.51,5.22-4.82,11.41-6.18,17.87-5.19,1.78.27,4.01,2.48,4.75,4.41.95,2.88,1.32,5.92,1.08,8.95-.31,6.15-.5,6.14,4.24,9.04,3.78,2.33,7.57,4.65,11.73,7.2-4.95,2.95-9.6,5.6-14.13,8.5-1.02.76-1.68,1.92-1.82,3.19-.1,23.35-.08,46.71-.07,70.08,0,.39.07.79.14,1.51h10.09v24.88c-4.04-2.79-7.96-5.39-11.76-8.18-1.59-1.17-2.76-1.29-4.37.06-3.3,2.77-6.78,5.26-10.51,8.12v-24.58h9.32v-69.76c-9.57,5.67-18.91,11.22-28.85,17.12,0-4.48-.12-8.41.05-12.33.09-2.09-.63-3.05-2.27-3.91-22.4-11.76-45.66-20.42-70.31-24.06-21.13-3.11-41.82-.29-62.17,6.22-14.47,4.6-28.44,10.65-41.69,18.06-2.28,1.28-3.47,2.65-3.09,5.54.1,1.61.11,3.22.03,4.83C34.85,105.65,17.7,97.02,0,88.12v.02h0Zm257.96,9.54c3.71.05,6.74-3.25,6.76-7.32.02-4.02-3.06-7.51-6.64-7.53-3.5-.03-6.77,3.51-6.83,7.4-.05,3.94,3.07,7.42,6.7,7.46h0Zm2.42-22.92c.35-.19.69-.37,1.04-.55-.63-2.28-.66-5.63-2.04-6.59-2.11-1.48-4.52.54-6.7,2.44,2.76,1.68,5.22,3.19,7.69,4.7Z"/>
    <path id="Tracé_160-2" data-name="Tracé 160-2" class="cls-1" d="m62.47,144.95c-5.31-14.73-10.59-29.47-15.84-44.23-.2-1.05.11-2.13.84-2.91,20-18.26,42.28-30.16,68.47-36.93,32.43-5.89,61.87-.16,91.04,14.81,10.33,6.26,20.19,13.26,29.51,20.94.94.78,1.72,2.66,1.39,3.62-5.11,14.53-10.34,29.02-15.58,43.51-.19.37-.41.73-.65,1.07-1.09-.97-2.14-1.88-3.19-2.78-18.81-14.93-37.84-24.18-61.37-29.15-19.2-2.17-35.95.31-54.06,6.77-13.81,5.95-26.71,13.84-38.3,23.42-.63.55-1.29,1.06-2.26,1.86h0s0,0,0,0Z"/>
  </g>
  <g id="Groupe_121" data-name="Groupe 121">
    <path id="Tracé_161" data-name="Tracé 161" class="cls-1" d="m151.17,294.38c-.02-.34-.05-.63-.05-.93-.02-3.44-.05-6.89-.07-10.33-.04-13.05-.07-26.09-.09-39.13-.02-7.52-.03-15.04-.03-22.56-.02-5.22-.05-10.45-.06-15.67-.05-15.89-.09-31.77-.12-47.65.01-.45-.01-.91-.06-1.36-.09-.76.14-1.04.97-1.04,7.1.03,14.19.02,21.29,0,2.39,0,4.77.02,7.16-.05.86-.02,1.13.22,1.13,1.1,0,6.67.05,13.35.07,20.02.02,9.94.02,19.87.03,29.81,0,5.38.05,10.75.06,16.13.04,11.3.08,22.59.11,33.88.03,9.82.05,19.63.07,29.45,0,2.51.03,5.01.08,7.51.02.6-.2.79-.78.79-9.79.02-19.57.04-29.35.08-.13-.01-.26-.03-.39-.05l.02.02Z"/>
    <path id="Tracé_162" data-name="Tracé 162" class="cls-1" d="m94.56,225.35v54.9c0,4.44.03,8.88.08,13.31,0,.8-.19,1.08-1.06,1.08-8.91-.02-17.82,0-26.73,0-.36,0-.72,0-1.09.02-1.12.07-1.68-.47-1.69-1.61v-.09c-.03-11.36-.06-22.71-.09-34.06-.02-9.21-.03-18.42-.03-27.63,0-5.29-.05-10.57-.06-15.85-.04-11.39-.08-22.77-.11-34.15-.02-8-.05-16-.07-24,0-1.22,0-1.22,1.25-1.22,5.71-.02,11.41-.05,17.12-.07,3.74-.02,7.49-.03,11.23-.09.78-.02,1.04.26.94.98,0,.06,0,.12,0,.18.03,11.93.06,23.86.09,35.78.02,7.94.03,15.89.03,23.83v8.7h.19Z"/>
    <path id="Tracé_163" data-name="Tracé 163" class="cls-1" d="m191.53,155.65h30.57v7.29c0,5.26,0,10.51.02,15.77.02,9.91.05,19.81.07,29.71,0,2.51.05,5.01.08,7.51,0,1.25,0,1.27-1.23,1.22-15.1-.52-27.54-12.01-29.27-27.02-.13-1.05-.19-2.11-.2-3.16-.03-10.06-.05-20.11-.05-30.16v-1.16h0Z"/>
    <path id="Tracé_164" data-name="Tracé 164" class="cls-1" d="m110.03,217.43v-1.09c-.02-14.79-.03-29.58-.04-44.38,0-4.98-.03-9.96-.08-14.94-.02-.92.26-1.16,1.17-1.15,6.19.04,12.38,0,18.57,0,3.23,0,6.46-.02,9.69-.08.79-.02,1.1.17,1.09,1.05-.02,5.19.02,10.38.05,15.58.02,4.83.07,9.66.08,14.49.08,13.33-8.53,25.15-21.24,29.16-2.99,1-6.13,1.46-9.28,1.37h0Z"/>
  </g>
</svg>