<?xml version="1.0" encoding="UTF-8"?>
<svg id="Calque_1" data-name="Calque 1" xmlns="http://www.w3.org/2000/svg" viewBox="0 0 1408 1408">
  <defs>
    <style>
      .cls-1 {
        fill: #1e4f9e;
        stroke-width: 0px;
      }
    </style>
  </defs>
  <path class="cls-1" d="m1408,1112c0,18-3.33,41.5-10,70.5s-13.67,51.83-21,68.5c-14,33.33-54.67,68.67-122,106-62.67,34-124.67,51-186,51-18,0-35.67-1.17-53-3.5s-36.5-6.5-57.5-12.5-36.67-10.83-47-14.5-28.83-10.5-55.5-20.5c-26.67-10-43-16-49-18-65.33-23.33-123.67-51-175-83-84.67-52.67-172.67-124.67-264-216-91.33-91.33-163.33-179.33-216-264-32-51.33-59.67-109.67-83-175-2-6-8-22.33-18-49s-16.83-45.17-20.5-55.5-8.5-26-14.5-47-10.17-40.17-12.5-57.5c-2.33-17.33-3.5-35-3.5-53,0-61.33,17-123.33,51-186C88.33,85.67,123.67,45,157,31c16.67-7.33,39.5-14.33,68.5-21S278,0,296,0c9.33,0,16.33,1,21,3,12,4,29.67,29.33,53,76,7.33,12.67,17.33,30.67,30,54,12.67,23.33,24.33,44.5,35,63.5s21,36.83,31,53.5c2,2.67,7.83,11,17.5,25s16.83,25.83,21.5,35.5,7,19.17,7,28.5c0,13.33-9.5,30-28.5,50s-39.67,38.33-62,55-43,34.33-62,53-28.5,34-28.5,46c0,6,1.67,13.5,5,22.5s6.17,15.83,8.5,20.5,7,12.67,14,24,10.83,17.67,11.5,19c50.67,91.33,108.67,169.67,174,235,65.33,65.33,143.67,123.33,235,174,1.33.67,7.67,4.5,19,11.5s19.33,11.67,24,14,11.5,5.17,20.5,8.5,16.5,5,22.5,5c12,0,27.33-9.5,46-28.5s36.33-39.67,53-62,35-43,55-62,36.67-28.5,50-28.5c9.33,0,18.83,2.33,28.5,7s21.5,11.83,35.5,21.5,22.33,15.5,25,17.5c16.67,10,34.5,20.33,53.5,31s40.17,22.33,63.5,35,41.33,22.67,54,30c46.67,23.33,72,41,76,53,2,4.67,3,11.67,3,21Z"/>
</svg>