<?xml version="1.0" encoding="utf-8"?>
<!-- Generator: Adobe Illustrator 27.8.1, SVG Export Plug-In . SVG Version: 6.00 Build 0)  -->
<svg version="1.1" id="Calque_1" xmlns="http://www.w3.org/2000/svg" xmlns:xlink="http://www.w3.org/1999/xlink" x="0px" y="0px"
	 viewBox="0 0 2048 1792" style="enable-background:new 0 0 2048 1792;" xml:space="preserve">
<style type="text/css">
	.st0{fill:#1E4F9E;}
</style>
<path class="st0" d="M960,0l960,384v128h-128c0,17.3-6.8,32.3-20.5,45s-29.8,19-48.5,19H197c-18.7,0-34.8-6.3-48.5-19
	S128,529.3,128,512H0V384L960,0z M256,640h256v768h128V640h256v768h128V640h256v768h128V640h256v768h59c18.7,0,34.8,6.3,48.5,19
	s20.5,27.7,20.5,45v64H128v-64c0-17.3,6.8-32.3,20.5-45s29.8-19,48.5-19h59V640z M1851,1600c18.7,0,34.8,6.3,48.5,19
	s20.5,27.7,20.5,45v128H0v-128c0-17.3,6.8-32.3,20.5-45s29.8-19,48.5-19H1851z"/>
</svg>
